<svg version="1.0" xmlns="http://www.w3.org/2000/svg" width="217.333" height="42.667" viewBox="0 0 163 32"><path d="M15.5 4.9c-2.4 1-6 4.9-6.8 7.3-.5 1.5 0 1.8 2.7 1.8 1.8 0 3.9-.7 4.6-1.5.7-.8 2.5-1.5 4-1.5s3.3.7 4 1.5c.7.8 2.7 1.5 4.5 1.5 2.8 0 3.2-.3 2.8-1.9-1.4-5.4-10.5-9.5-15.8-7.2zM100.3 5.3C99 5.8 98 6.9 98 7.7c0 1.7 1.1 1.7 3.4 0 2.6-1.9 1.7-3.7-1.1-2.4zM80 15c0 8.3.1 9 2 9 1.5 0 2-.7 2-2.8l.1-2.7 2 2.8c1.1 1.5 2.9 2.7 4 2.7 2.4 0 2.4-1.2-.1-3.5s-2.5-3 .1-6.6l2-2.9H90c-1.2 0-3 1-4.1 2.2l-1.8 2.3-.1-4.8c0-4-.3-4.7-2-4.7-1.9 0-2 .7-2 9zM119 9c0 2.7-.3 3.1-1.7 2.5-4.9-2.1-8.3.2-8.3 5.5 0 5.1 2.2 6.8 8.8 6.8h5.3l-.3-8.7c-.3-7.2-.6-8.6-2-8.9-1.4-.3-1.8.3-1.8 2.8zm-1.1 6.4c.9 1.1 1 2 .1 3.5-1.2 2.3-1.2 2.3-3.4 1.5-1.6-.6-2.2-4.5-.9-5.7 1.1-1.1 3-.8 4.2.7zM50 15.5c0 7.8.2 8.5 2 8.5 1.6 0 2-.7 2-3 0-2.5.4-3 2.3-3 1.3 0 3.1-.8 4-1.8 3.9-4.3.4-9.2-6.5-9.2H50v8.5zm7.5-3c0 1.1-.8 2.1-1.7 2.3-1.4.3-1.8-.3-1.8-2.3 0-2 .4-2.6 1.8-2.3.9.2 1.7 1.2 1.7 2.3zM69 10.8c-4.9 1.6-6.8 8.3-3.2 11.5 4.2 3.8 11.2.8 11.2-4.6 0-1.8-.4-3.7-.8-4.4-1-1.6-5.4-3.1-7.2-2.5zm3.8 6.1c.4 2.9-.9 4.4-3.1 3.5-1.7-.6-2.3-4.4-1-5.8 1.4-1.4 3.8 0 4.1 2.3zM99 10.8c-4.8 1.5-6.4 6.7-3.4 11 1.9 2.8 6.4 2.9 9.5.2l2.4-2.1-4.4.3c-2.8.2-4.6-.1-4.8-1-.3-.8.9-1.2 4.1-1.2 3.8 0 4.6-.3 4.6-1.8 0-3.1-4.9-6.4-8-5.4zm4 4.2c0 .5-1.1 1-2.5 1s-2.5-.5-2.5-1c0-.6 1.1-1 2.5-1s2.5.4 2.5 1zM130 10.8c-4.8 1.5-6.4 6.7-3.4 11 1.9 2.8 6.4 2.9 9.5.2l2.4-2.1-4.4.3c-2.8.2-4.6-.1-4.8-1-.3-.8.9-1.2 4.1-1.2 3.7 0 4.6-.3 4.6-1.8 0-.9-.4-2.2-.8-2.9-1-1.6-5.4-3.1-7.2-2.5zm4 4.2c0 .5-1.2 1-2.6 1-1.4 0-2.3-.4-1.9-1 .3-.6 1.5-1 2.6-1 1 0 1.9.4 1.9 1zM141.6 13.9c1.6 2.6 1.6 3.3.4 5.8-.8 1.5-1.6 3.1-1.8 3.5-.8 1.6 3.1.7 4.4-1 1.3-1.6 1.5-1.6 2.5 0 1 1.8 4.9 2.6 4.9 1 0-.4-.9-1.8-2-3.2-1.8-2.4-1.8-2.5.1-5.7l2.1-3.3h-2.1c-1.1 0-2.4.7-2.9 1.6-.8 1.4-1 1.4-2.1 0-.8-.9-2.2-1.6-3.3-1.6-1.8 0-1.9.1-.2 2.9z"/><path d="M18 14.6c-1.1 1.2-1 1.8.3 3.2 1.6 1.5 1.8 1.5 3.4 0 1.3-1.4 1.4-2 .3-3.2-.7-.9-1.6-1.6-2-1.6-.4 0-1.3.7-2 1.6z"/><path d="M8.7 19.9c.3 1 1.8 3.2 3.5 4.7 2.4 2.4 3.8 2.9 7.8 2.9s5.4-.5 7.8-2.9c1.7-1.5 3.2-3.7 3.5-4.7.4-1.6 0-1.9-2.8-1.9-1.8 0-3.8.7-4.5 1.5-.7.8-2.5 1.5-4 1.5s-3.3-.7-4-1.5c-.7-.8-2.7-1.5-4.5-1.5-2.8 0-3.2.3-2.8 1.9z"/></svg>